<mxfile host="app.diagrams.net" modified="2023-07-12T11:24:46.042Z" agent="Mozilla/5.0 (Windows NT 10.0; Win64; x64) AppleWebKit/537.36 (KHTML, like Gecko) Chrome/95.0.4638.69 Safari/537.36" version="21.5.1" etag="nG0NGYJuGZSF9lT5txQp" type="github">
  <diagram name="第 1 页" id="hNVGFsf1pVpsKQKq2Oho">
    <mxGraphModel>
      <root>
        <mxCell id="0" />
        <mxCell id="1" parent="0" />
      </root>
    </mxGraphModel>
  </diagram>
</mxfile>
